<?xml version="1.0" encoding="utf-8"?>
<!-- Generator: Adobe Illustrator 24.0.2, SVG Export Plug-In . SVG Version: 6.00 Build 0)  -->
<svg version="1.1" id="Capa_1" xmlns="http://www.w3.org/2000/svg" xmlns:xlink="http://www.w3.org/1999/xlink" x="0px" y="0px"
	 viewBox="0 0 376.6 376" style="enable-background:new 0 0 376.6 376;" xml:space="preserve">
<style type="text/css">
	.st0{fill:#4A31D1;}
	.st1{fill:#1EC16B;stroke:#1EC16B;stroke-miterlimit:10;}
	.st2{fill:#1EC16B;fill-opacity:0;stroke:#1EC16B;stroke-width:10;stroke-miterlimit:3.9334;stroke-opacity:0;}
	.st3{fill:#1EC16B;fill-opacity:0;stroke:#1EC16B;stroke-miterlimit:10;}
	.st4{fill:#1EC16B;fill-opacity:0;stroke:#1EC16B;stroke-width:10;stroke-miterlimit:3.9334;}
</style>
<g id="Capa_2_1_">
	<rect x="-7" y="-4" class="st0" width="387.9" height="387.9"/>
</g>
<g id="Capa_1_1_">
	<g>
		<g>
			<g>
				<path id="bCm2RhhjR" class="st1" d="M76.4,366.7c-24.8,0-44.9-20.1-44.9-44.9s20.1-44.9,44.9-44.9s44.9,20.1,44.9,44.9
					S101.2,366.7,76.4,366.7z"/>
			</g>
			<g>
				<g>
					<path id="bCm2RhhjR_1_" class="st2" d="M76.4,366.7c-24.8,0-44.9-20.1-44.9-44.9s20.1-44.9,44.9-44.9s44.9,20.1,44.9,44.9
						S101.2,366.7,76.4,366.7z"/>
				</g>
			</g>
		</g>
		<g>
			<g>
				<path id="bizoqXWm1" class="st1" d="M215.5,366.7c-24.8,0-44.9-20.1-44.9-44.9s20.1-44.9,44.9-44.9s44.9,20.1,44.9,44.9
					C260.4,346.5,240.3,366.7,215.5,366.7z"/>
			</g>
			<g>
				<g>
					<path id="bizoqXWm1_1_" class="st2" d="M215.5,366.7c-24.8,0-44.9-20.1-44.9-44.9s20.1-44.9,44.9-44.9s44.9,20.1,44.9,44.9
						C260.4,346.5,240.3,366.7,215.5,366.7z"/>
				</g>
			</g>
		</g>
		<g>
			<g>
				<path id="bEWdNn8Y" class="st1" d="M145.7,232.9c-24.8,0-44.9-20.1-44.9-44.9s20.1-44.9,44.9-44.9s44.9,20.1,44.9,44.9
					C190.5,212.8,170.4,232.9,145.7,232.9z"/>
			</g>
			<g>
				<g>
					<path id="bEWdNn8Y_1_" class="st2" d="M145.7,232.9c-24.8,0-44.9-20.1-44.9-44.9s20.1-44.9,44.9-44.9s44.9,20.1,44.9,44.9
						C190.5,212.8,170.4,232.9,145.7,232.9z"/>
				</g>
			</g>
		</g>
		<g>
			<g>
				<path id="f11UjzFzLU" class="st1" d="M299.6,232.9c-24.8,0-44.9-20.1-44.9-44.9s20.1-44.9,44.9-44.9s44.9,20.1,44.9,44.9
					S324.4,232.9,299.6,232.9z"/>
			</g>
			<g>
				<g>
					<path id="f11UjzFzLU_1_" class="st2" d="M299.6,232.9c-24.8,0-44.9-20.1-44.9-44.9s20.1-44.9,44.9-44.9s44.9,20.1,44.9,44.9
						S324.4,232.9,299.6,232.9z"/>
				</g>
			</g>
		</g>
		<g>
			<g>
				<g>
					<path id="bCwqJjlNc" class="st3" d="M215.5,100.1c-24.8,0-44.9-20.1-44.9-44.9s20.1-44.9,44.9-44.9s44.9,20.1,44.9,44.9
						S240.3,100.1,215.5,100.1z"/>
				</g>
				<g>
					<g>
						<path id="bCwqJjlNc_1_" class="st4" d="M215.5,100.1c-24.8,0-44.9-20.1-44.9-44.9s20.1-44.9,44.9-44.9s44.9,20.1,44.9,44.9
							S240.3,100.1,215.5,100.1z"/>
					</g>
				</g>
			</g>
			<g>
				<g>
					<path id="adjNQq5wx" class="st3" d="M194.1,90.9L76.4,322.3"/>
				</g>
				<g>
					<g>
						<path id="adjNQq5wx_1_" class="st4" d="M194.1,90.9L76.4,322.3"/>
					</g>
				</g>
			</g>
			<g>
				<g>
					<path id="f7zKruHQm" class="st3" d="M299.6,190.3L238,90.9"/>
				</g>
				<g>
					<g>
						<path id="f7zKruHQm_1_" class="st4" d="M299.6,190.3L238,90.9"/>
					</g>
				</g>
			</g>
			<g>
				<g>
					<path id="jBshe8SAY" class="st3" d="M215.5,321.8l-69.8-131.4"/>
				</g>
				<g>
					<g>
						<path id="jBshe8SAY_1_" class="st4" d="M215.5,321.8l-69.8-131.4"/>
					</g>
				</g>
			</g>
		</g>
	</g>
</g>
</svg>
