<?xml version="1.0" encoding="utf-8"?>
<!-- Generator: Adobe Illustrator 24.0.2, SVG Export Plug-In . SVG Version: 6.00 Build 0)  -->
<svg version="1.1" id="Capa_1" xmlns="http://www.w3.org/2000/svg" xmlns:xlink="http://www.w3.org/1999/xlink" x="0px" y="0px"
	 viewBox="0 0 376.6 376" style="enable-background:new 0 0 376.6 376;" xml:space="preserve">
<style type="text/css">
	.st0{fill:#4A31D1;}
	.st1{fill:#4A31D1;fill-opacity:0;stroke:#000000;stroke-width:10;stroke-miterlimit:3.9334;stroke-opacity:0;}
	.st2{fill:#4A31D1;fill-opacity:0;stroke:#4A31D1;stroke-miterlimit:10;}
	.st3{fill:#4A31D1;fill-opacity:0;stroke:#4A31D1;stroke-width:10;stroke-miterlimit:3.9334;}
</style>
<g>
	<g>
		<g>
			<path id="bCm2RhhjR" class="st0" d="M76.7,369.2c-24.8,0-44.9-20.1-44.9-44.9s20.1-44.9,44.9-44.9s44.9,20.1,44.9,44.9
				S101.5,369.2,76.7,369.2z"/>
		</g>
		<g>
			<g>
				<path id="bCm2RhhjR_1_" class="st1" d="M76.7,369.2c-24.8,0-44.9-20.1-44.9-44.9s20.1-44.9,44.9-44.9s44.9,20.1,44.9,44.9
					S101.5,369.2,76.7,369.2z"/>
			</g>
		</g>
	</g>
	<g>
		<g>
			<path id="bizoqXWm1" class="st0" d="M215.8,369.2c-24.8,0-44.9-20.1-44.9-44.9s20.1-44.9,44.9-44.9s44.9,20.1,44.9,44.9
				C260.7,349.1,240.6,369.2,215.8,369.2z"/>
		</g>
		<g>
			<g>
				<path id="bizoqXWm1_1_" class="st1" d="M215.8,369.2c-24.8,0-44.9-20.1-44.9-44.9s20.1-44.9,44.9-44.9s44.9,20.1,44.9,44.9
					C260.7,349.1,240.6,369.2,215.8,369.2z"/>
			</g>
		</g>
	</g>
	<g>
		<g>
			<path id="bEWdNn8Y" class="st0" d="M146,235.5c-24.8,0-44.9-20.1-44.9-44.9s20.1-44.9,44.9-44.9s44.9,20.1,44.9,44.9
				C190.8,215.4,170.7,235.5,146,235.5z"/>
		</g>
		<g>
			<g>
				<path id="bEWdNn8Y_1_" class="st1" d="M146,235.5c-24.8,0-44.9-20.1-44.9-44.9s20.1-44.9,44.9-44.9s44.9,20.1,44.9,44.9
					C190.8,215.4,170.7,235.5,146,235.5z"/>
			</g>
		</g>
	</g>
	<g>
		<g>
			<path id="f11UjzFzLU" class="st0" d="M299.9,235.5c-24.8,0-44.9-20.1-44.9-44.9s20.1-44.9,44.9-44.9s44.9,20.1,44.9,44.9
				S324.7,235.5,299.9,235.5z"/>
		</g>
		<g>
			<g>
				<path id="f11UjzFzLU_1_" class="st1" d="M299.9,235.5c-24.8,0-44.9-20.1-44.9-44.9s20.1-44.9,44.9-44.9s44.9,20.1,44.9,44.9
					S324.7,235.5,299.9,235.5z"/>
			</g>
		</g>
	</g>
	<g>
		<g>
			<g>
				<path id="bCwqJjlNc" class="st2" d="M215.8,102.7c-24.8,0-44.9-20.1-44.9-44.9s20.1-44.9,44.9-44.9s44.9,20.1,44.9,44.9
					C260.7,82.6,240.6,102.7,215.8,102.7z"/>
			</g>
			<g>
				<g>
					<path id="bCwqJjlNc_1_" class="st3" d="M215.8,102.7c-24.8,0-44.9-20.1-44.9-44.9s20.1-44.9,44.9-44.9s44.9,20.1,44.9,44.9
						C260.7,82.6,240.6,102.7,215.8,102.7z"/>
				</g>
			</g>
		</g>
		<g>
			<g>
				<path id="adjNQq5wx" class="st2" d="M194.4,93.5L76.7,324.9"/>
			</g>
			<g>
				<g>
					<path id="adjNQq5wx_1_" class="st3" d="M194.4,93.5L76.7,324.9"/>
				</g>
			</g>
		</g>
		<g>
			<g>
				<path id="f7zKruHQm" class="st2" d="M299.9,192.9l-61.6-99.4"/>
			</g>
			<g>
				<g>
					<path id="f7zKruHQm_1_" class="st3" d="M299.9,192.9l-61.6-99.4"/>
				</g>
			</g>
		</g>
		<g>
			<g>
				<path id="jBshe8SAY" class="st2" d="M215.8,324.3L146,192.9"/>
			</g>
			<g>
				<g>
					<path id="jBshe8SAY_1_" class="st3" d="M215.8,324.3L146,192.9"/>
				</g>
			</g>
		</g>
	</g>
</g>
</svg>
