<?xml version="1.0" encoding="UTF-8" standalone="no"?>
<!DOCTYPE svg PUBLIC "-//W3C//DTD SVG 1.1//EN" "http://www.w3.org/Graphics/SVG/1.1/DTD/svg11.dtd">
<svg version="1.1" xmlns="http://www.w3.org/2000/svg" xmlns:xlink="http://www.w3.org/1999/xlink" preserveAspectRatio="xMidYMid meet" viewBox="7.75737704918042 5.670248091239827 354.47619047619077 232.57142857142873" width="350.48" height="228.57"><defs><path d="M359.23 16.47C359.23 60.22 359.23 181.68 359.23 225.43C359.23 230.85 354.84 235.24 349.43 235.24C281.3 235.24 86.7 235.24 18.57 235.24C13.15 235.24 8.76 230.85 8.76 225.43C8.76 181.68 8.76 60.22 8.76 16.47C8.76 11.06 13.15 6.67 18.57 6.67C86.7 6.67 281.3 6.67 349.43 6.67C354.84 6.67 359.23 11.06 359.23 16.47Z" id="cVlivxJwh"></path><radialGradient id="gradienta21bhxF7q" gradientUnits="userSpaceOnUse" cx="8.76" cy="230.71" dx="331.95" dy="36.18" r="377.22"><stop style="stop-color: #8860d0;stop-opacity: 1" offset="0%"></stop><stop style="stop-color: #59b9ea;stop-opacity: 0.87" offset="100%"></stop></radialGradient><path d="M156.62 32.23L156.62 48.23L89.11 48.23L89.11 32.23L156.62 32.23Z" id="aaIw1cm83i"></path><path d="M83.3 56.14L83.3 72.14L15.78 72.14L15.78 56.14L83.3 56.14Z" id="f8IwqzWPe"></path><path d="M148.56 72.14L148.56 184.49L18.28 184.49L18.28 72.14L148.56 72.14Z" id="bS0jNe1yQ"></path><path d="M148.56 72.14L148.56 184.49L18.28 184.49L18.28 72.14L148.56 72.14Z" id="b1NbRFybIW"></path><path d="M305.17 86.61L305.17 102.61L237.66 102.61L237.66 86.61L305.17 86.61Z" id="b8NiKYvIX"></path><path d="M280.94 48.23L280.94 211.51L91.61 211.51L91.61 48.23L280.94 48.23Z" id="b2dTmDSiK"></path><path d="M280.94 48.23L280.94 211.51L91.61 211.51L91.61 48.23L280.94 48.23Z" id="bnoSdnz0u"></path><path d="M347.74 100.77L347.74 223.09L240.19 223.09L240.19 100.77L347.74 100.77Z" id="a7haFN4BV"></path><path d="M347.74 100.77L347.74 223.09L240.19 223.09L240.19 100.77L347.74 100.77Z" id="c2dJm7B273"></path></defs><g><g><use xlink:href="#cVlivxJwh" opacity="1" fill="url(#gradienta21bhxF7q)"></use><g><use xlink:href="#cVlivxJwh" opacity="1" fill-opacity="0" stroke="#000000" stroke-width="1" stroke-opacity="0"></use></g></g><g><use xlink:href="#aaIw1cm83i" opacity="1" fill="#ffffff" fill-opacity="1"></use><g><use xlink:href="#aaIw1cm83i" opacity="1" fill-opacity="0" stroke="#000000" stroke-width="1" stroke-opacity="0"></use></g></g><g><use xlink:href="#f8IwqzWPe" opacity="1" fill="#ffffff" fill-opacity="1"></use><g><use xlink:href="#f8IwqzWPe" opacity="1" fill-opacity="0" stroke="#000000" stroke-width="1" stroke-opacity="0"></use></g></g><g><use xlink:href="#bS0jNe1yQ" opacity="1" fill="#ffffff" fill-opacity="0"></use><g><use xlink:href="#bS0jNe1yQ" opacity="1" fill-opacity="0" stroke="#000000" stroke-width="1" stroke-opacity="0"></use></g></g><g><use xlink:href="#b1NbRFybIW" opacity="1" fill="#000000" fill-opacity="0"></use><g><use xlink:href="#b1NbRFybIW" opacity="1" fill-opacity="0" stroke="#ffffff" stroke-width="5" stroke-opacity="1"></use></g></g><g><use xlink:href="#b8NiKYvIX" opacity="1" fill="#ffffff" fill-opacity="1"></use><g><use xlink:href="#b8NiKYvIX" opacity="1" fill-opacity="0" stroke="#000000" stroke-width="1" stroke-opacity="0"></use></g></g><g><use xlink:href="#b2dTmDSiK" opacity="1" fill="#ffffff" fill-opacity="0"></use><g><use xlink:href="#b2dTmDSiK" opacity="1" fill-opacity="0" stroke="#000000" stroke-width="1" stroke-opacity="0"></use></g></g><g><use xlink:href="#bnoSdnz0u" opacity="1" fill="#000000" fill-opacity="0"></use><g><use xlink:href="#bnoSdnz0u" opacity="1" fill-opacity="0" stroke="#ffffff" stroke-width="5" stroke-opacity="1"></use></g></g><g><use xlink:href="#a7haFN4BV" opacity="1" fill="#ffffff" fill-opacity="0"></use><g><use xlink:href="#a7haFN4BV" opacity="1" fill-opacity="0" stroke="#000000" stroke-width="1" stroke-opacity="0"></use></g></g><g><use xlink:href="#c2dJm7B273" opacity="1" fill="#000000" fill-opacity="0"></use><g><use xlink:href="#c2dJm7B273" opacity="1" fill-opacity="0" stroke="#ffffff" stroke-width="5" stroke-opacity="1"></use></g></g></g></svg>