<?xml version="1.0" encoding="utf-8"?>
<!-- Generator: Adobe Illustrator 24.0.2, SVG Export Plug-In . SVG Version: 6.00 Build 0)  -->
<svg version="1.1" xmlns="http://www.w3.org/2000/svg" xmlns:xlink="http://www.w3.org/1999/xlink" x="0px" y="0px"
	 viewBox="0 0 362 236.1" style="enable-background:new 0 0 362 236.1;" xml:space="preserve">
<style type="text/css">
	.st0{fill:url(#SVGID_1_);}
	.st1{fill:#FFFFFF;}
	.st2{fill-opacity:0;stroke:#000000;stroke-width:1.0158;stroke-miterlimit:3.9312;stroke-opacity:0;}
	.st3{fill:#FFFFFF;fill-opacity:0;}
	.st4{fill-opacity:0;}
	.st5{fill-opacity:0;stroke:#FFFFFF;stroke-width:5.0789;stroke-miterlimit:3.9312;}
</style>
<g id="Capa_2_1_">
	<g>
		
			<linearGradient id="SVGID_1_" gradientUnits="userSpaceOnUse" x1="36.8875" y1="-24.2125" x2="325.1125" y2="264.0125" gradientTransform="matrix(1 0 0 -1 0 238)">
			<stop  offset="0" style="stop-color:#1EC16B"/>
			<stop  offset="0.5051" style="stop-color:#2D918D"/>
			<stop  offset="1" style="stop-color:#4A31D1"/>
		</linearGradient>
		<path class="st0" d="M3,224.2c0,5.5,4.5,10,10,10h336c5.5,0,10-4.5,10-10V12c0-5.5-4.5-10-10-10H13C7.5,2,3,6.5,3,12V224.2z"/>
	</g>
</g>
<g id="Capa_3">
	<g>
		<path id="aaIw1cm83i" class="st1" d="M153.2,28v16.3H84.6V28H153.2z"/>
	</g>
	<g>
		<g>
			<path id="aaIw1cm83i_1_" class="st2" d="M153.2,28v16.3H84.6V28H153.2z"/>
		</g>
	</g>
	<g>
		<path id="f8IwqzWPe" class="st1" d="M78.7,52.3v16.3H10.1V52.3H78.7z"/>
	</g>
	<g>
		<g>
			<path id="f8IwqzWPe_1_" class="st2" d="M78.7,52.3v16.3H10.1V52.3H78.7z"/>
		</g>
	</g>
	<g>
		<path id="bS0jNe1yQ" class="st3" d="M145,68.5v114.1H12.7V68.5H145z"/>
	</g>
	<g>
		<g>
			<path id="bS0jNe1yQ_1_" class="st2" d="M145,68.5v114.1H12.7V68.5H145z"/>
		</g>
	</g>
	<g>
		<path id="b1NbRFybIW" class="st4" d="M145,68.5v114.1H12.7V68.5H145z"/>
	</g>
	<g>
		<g>
			<path id="b1NbRFybIW_1_" class="st5" d="M145,68.5v114.1H12.7V68.5H145z"/>
		</g>
	</g>
	<g>
		<path id="b8NiKYvIX" class="st1" d="M304.1,83.2v16.3h-68.6V83.2H304.1z"/>
	</g>
	<g>
		<g>
			<path id="b8NiKYvIX_1_" class="st2" d="M304.1,83.2v16.3h-68.6V83.2H304.1z"/>
		</g>
	</g>
	<g>
		<path id="b2dTmDSiK" class="st3" d="M279.5,44.2v165.9H87.2V44.2H279.5z"/>
	</g>
	<g>
		<g>
			<path id="b2dTmDSiK_1_" class="st2" d="M279.5,44.2v165.9H87.2V44.2H279.5z"/>
		</g>
	</g>
	<g>
		<path id="bnoSdnz0u" class="st4" d="M279.5,44.2v165.9H87.2V44.2H279.5z"/>
	</g>
	<g>
		<g>
			<path id="bnoSdnz0u_1_" class="st5" d="M279.5,44.2v165.9H87.2V44.2H279.5z"/>
		</g>
	</g>
	<g>
		<path id="a7haFN4BV" class="st3" d="M347.3,97.6v124.3H238.1V97.6H347.3z"/>
	</g>
	<g>
		<g>
			<path id="a7haFN4BV_1_" class="st2" d="M347.3,97.6v124.3H238.1V97.6H347.3z"/>
		</g>
	</g>
	<g>
		<path id="c2dJm7B273" class="st4" d="M347.3,97.6v124.3H238.1V97.6H347.3z"/>
	</g>
	<g>
		<g>
			<path id="c2dJm7B273_1_" class="st5" d="M347.3,97.6v124.3H238.1V97.6H347.3z"/>
		</g>
	</g>
</g>
</svg>
