<?xml version="1.0" encoding="utf-8"?>
<!-- Generator: Adobe Illustrator 24.0.2, SVG Export Plug-In . SVG Version: 6.00 Build 0)  -->
<svg version="1.1" xmlns="http://www.w3.org/2000/svg" xmlns:xlink="http://www.w3.org/1999/xlink" x="0px" y="0px"
	 viewBox="0 0 362 236.1" style="enable-background:new 0 0 362 236.1;" xml:space="preserve">
<style type="text/css">
	.st0{fill:url(#SVGID_1_);}
	.st1{fill-opacity:0;}
	.st2{fill-opacity:0;stroke:#FFFFFF;stroke-width:4.1821;stroke-miterlimit:3.9293;}
	.st3{opacity:0.9;}
	.st4{opacity:0.8;}
	.st5{opacity:0.7;}
	.st6{fill:#FFFFFF;}
	.st7{fill-opacity:0;stroke:#000000;stroke-width:1.0455;stroke-miterlimit:3.9293;stroke-opacity:0;}
	.st8{opacity:0.85;}
</style>
<g id="Capa_2_1_">
	<g>
		
			<linearGradient id="SVGID_1_" gradientUnits="userSpaceOnUse" x1="36.8875" y1="-24.2125" x2="325.1125" y2="264.0125" gradientTransform="matrix(1 0 0 -1 0 238)">
			<stop  offset="0" style="stop-color:#1EC16B"/>
			<stop  offset="0.5051" style="stop-color:#2D918D"/>
			<stop  offset="1" style="stop-color:#4A31D1"/>
		</linearGradient>
		<path class="st0" d="M3,224.2c0,5.5,4.5,10,10,10h336c5.5,0,10-4.5,10-10V12c0-5.5-4.5-10-10-10H13C7.5,2,3,6.5,3,12V224.2z"/>
	</g>
</g>
<g id="Capa_3">
	<g>
		<g>
			<path id="a5Q1OOF1D" class="st1" d="M105.1,50.8l139.8,113.7"/>
		</g>
		<g>
			<g>
				<path id="a5Q1OOF1D_1_" class="st2" d="M105.1,50.8l139.8,113.7"/>
			</g>
		</g>
	</g>
	<g>
		<g>
			<path id="a4fzFy4tfJ" class="st1" d="M298.5,114.6L185.2,34l-82.7,17.2l-23.1,99l114.2,55.9"/>
		</g>
		<g>
			<g>
				<path id="a4fzFy4tfJ_1_" class="st2" d="M298.5,114.6L185.2,34l-82.7,17.2l-23.1,99l114.2,55.9"/>
			</g>
		</g>
	</g>
	<g class="st3">
		<g>
			<path id="bkrwsVR5I" class="st1" d="M82,149.8L214,105.3l-14.7,100.4"/>
		</g>
		<g>
			<g>
				<path id="bkrwsVR5I_1_" class="st2" d="M82,149.8L214,105.3l-14.7,100.4"/>
			</g>
		</g>
	</g>
	<g>
		<g>
			<path id="d5UBawl05" class="st1" d="M105.1,50.8l193.5,63.4"/>
		</g>
		<g>
			<g>
				<path id="d5UBawl05_1_" class="st2" d="M105.1,50.8l193.5,63.4"/>
			</g>
		</g>
	</g>
	<g class="st4">
		<g>
			<path id="ifGifvLV7" class="st1" d="M247.5,164.5L84.7,149.8L190.4,33.6"/>
		</g>
		<g>
			<g>
				<path id="ifGifvLV7_1_" class="st2" d="M247.5,164.5L84.7,149.8L190.4,33.6"/>
			</g>
		</g>
	</g>
	<g class="st5">
		<g>
			<path id="j2aLGfv7ja" class="st1" d="M301.1,114.2l-87-8.9l-109-54.6"/>
		</g>
		<g>
			<g>
				<path id="j2aLGfv7ja_1_" class="st2" d="M301.1,114.2l-87-8.9l-109-54.6"/>
			</g>
		</g>
	</g>
	<g>
		<g>
			<path id="e88XvuNAp" class="st6" d="M105.1,36.1c-8.1,0-14.7,6.6-14.7,14.7c0,8.1,6.6,14.7,14.7,14.7c8.1,0,14.7-6.6,14.7-14.7
				C119.7,42.7,113.2,36.1,105.1,36.1z"/>
		</g>
		<g>
			<g>
				<path id="e88XvuNAp_1_" class="st7" d="M105.1,36.1c-8.1,0-14.7,6.6-14.7,14.7c0,8.1,6.6,14.7,14.7,14.7
					c8.1,0,14.7-6.6,14.7-14.7C119.7,42.7,113.2,36.1,105.1,36.1z"/>
			</g>
		</g>
	</g>
	<g class="st3">
		<g>
			<path id="b49i3UgHi" class="st1" d="M187.7,33.6l11.6,174.6L107.2,52.9"/>
		</g>
		<g>
			<g>
				<path id="b49i3UgHi_1_" class="st2" d="M187.7,33.6l11.6,174.6L107.2,52.9"/>
			</g>
		</g>
	</g>
	<g>
		<g>
			<path id="a1QJoQf9xD" class="st6" d="M82,135.1c-8.1,0-14.7,6.6-14.7,14.7c0,8.1,6.6,14.7,14.7,14.7c8.1,0,14.7-6.6,14.7-14.7
				C96.7,141.7,90.1,135.1,82,135.1z"/>
		</g>
		<g>
			<g>
				<path id="a1QJoQf9xD_1_" class="st7" d="M82,135.1c-8.1,0-14.7,6.6-14.7,14.7c0,8.1,6.6,14.7,14.7,14.7
					c8.1,0,14.7-6.6,14.7-14.7C96.7,141.7,90.1,135.1,82,135.1z"/>
			</g>
		</g>
	</g>
	<g>
		<g>
			<path id="a36OInZnvn" class="st6" d="M187.7,18.9c-8.1,0-14.7,6.6-14.7,14.7c0,8.1,6.6,14.7,14.7,14.7c8.1,0,14.7-6.6,14.7-14.7
				C202.4,25.5,195.8,18.9,187.7,18.9z"/>
		</g>
		<g>
			<g>
				<path id="a36OInZnvn_1_" class="st7" d="M187.7,18.9c-8.1,0-14.7,6.6-14.7,14.7c0,8.1,6.6,14.7,14.7,14.7
					c8.1,0,14.7-6.6,14.7-14.7C202.4,25.5,195.8,18.9,187.7,18.9z"/>
			</g>
		</g>
	</g>
	<g>
		<g>
			<path id="bM9V6tEQD" class="st6" d="M214,90.7c-8.1,0-14.7,6.6-14.7,14.7c0,8.1,6.6,14.7,14.7,14.7c8.1,0,14.7-6.6,14.7-14.7
				C228.7,97.2,222.2,90.7,214,90.7z"/>
		</g>
		<g>
			<g>
				<path id="bM9V6tEQD_1_" class="st7" d="M214,90.7c-8.1,0-14.7,6.6-14.7,14.7c0,8.1,6.6,14.7,14.7,14.7c8.1,0,14.7-6.6,14.7-14.7
					C228.7,97.2,222.2,90.7,214,90.7z"/>
			</g>
		</g>
	</g>
	<g class="st4">
		<g>
			<path id="d1Dglx62Or" class="st1" d="M301.1,114.2L244.8,162l-48.7,43.7"/>
		</g>
		<g>
			<g>
				<path id="d1Dglx62Or_1_" class="st2" d="M301.1,114.2L244.8,162l-48.7,43.7"/>
			</g>
		</g>
	</g>
	<g>
		<g>
			<path id="b9tSm2LcR" class="st6" d="M203,192.3l1.2,0.5l1.2,0.6l1.1,0.8l1.1,0.9l1,1l0.9,1.1l0.8,1.2l0.7,1.2l0.6,1.2l0.4,1.3
				l0.3,1.3l0.2,1.3l0.1,1.3l0,1.3l-0.2,1.3l-0.3,1.3l-0.4,1.3l-0.5,1.2l-0.6,1.2l-0.8,1.2l-0.9,1.1l-1,1l-1.1,0.9l-1.1,0.8
				l-1.2,0.7l-1.2,0.6l-1.3,0.4l-1.3,0.3l-1.3,0.2l-1.3,0.1l-1.3-0.1l-1.3-0.2l-1.3-0.3l-1.3-0.4l-1.2-0.5l-1.2-0.6l-1.1-0.8
				l-1.1-0.9l-1-1l-0.9-1.1l-0.8-1.1l-0.7-1.2l-0.5-1.2l-0.4-1.3l-0.3-1.3l-0.2-1.3l-0.1-1.3l0.1-1.3l0.2-1.3l0.3-1.3l0.4-1.3
				l0.5-1.2l0.6-1.2l0.8-1.2l0.9-1.1l1-1l1.1-0.9l1.1-0.8l1.2-0.7l1.2-0.5l1.3-0.4l1.3-0.3l1.3-0.2l1.3-0.1l1.3,0l1.3,0.2l0,0
				l1.3,0.3L203,192.3z M250.2,148.4l1.2,0.5l1.2,0.6l1.1,0.8l1.1,0.9l1,1l0.9,1.1l0.8,1.1l0.7,1.2l0.6,1.2l0.4,1.3l0.3,1.3l0.2,1.3
				l0.1,1.3l0,1.3l-0.2,1.3l-0.3,1.3l-0.4,1.3l-0.5,1.2l-0.6,1.2l-0.8,1.1l-0.9,1.1l-1,1l-1.1,0.9l-1.1,0.8l-1.2,0.7l-1.2,0.5
				l-1.3,0.4l-1.3,0.3l-1.3,0.2l-1.3,0.1l-1.3-0.1l-1.3-0.2l-1.3-0.3l-1.3-0.4l-1.2-0.5l-1.2-0.6l-1.1-0.8l-1.1-0.9l-1-1l-0.9-1.1
				l-0.8-1.1l-0.7-1.2l-0.6-1.2l-0.4-1.3l-0.3-1.3l-0.2-1.3l-0.1-1.3l0-1.3l0.2-1.3l0.3-1.3l0.4-1.3l0.5-1.2l0.6-1.2l0.8-1.1
				l0.9-1.1l1-1l1.1-0.9l1.1-0.8l1.2-0.7l1.2-0.5l1.3-0.4l1.3-0.3l1.3-0.2l1.3-0.1l1.3,0.1l1.3,0.2l0,0l1.3,0.3L250.2,148.4z
				 M302.2,100l1.2,0.5l1.2,0.6l1.1,0.8l1.1,0.9l1,1l0.9,1.1l0.8,1.1l0.7,1.2l0.5,1.2l0.4,1.3l0.3,1.3l0.2,1.3l0.1,1.3l0,1.3
				l-0.2,1.3l-0.3,1.3l-0.4,1.3l-0.5,1.2l-0.6,1.2l-0.8,1.1l-0.9,1.1l-1,1l-1.1,0.9l-1.2,0.8l-1.2,0.7l-1.2,0.5l-1.3,0.4l-1.3,0.3
				l-1.3,0.2l-1.3,0.1l-1.3,0l-1.3-0.2l-1.3-0.3l-1.3-0.4l-1.2-0.5l-1.2-0.6l-1.2-0.8l-1.1-0.9l-1-1l-0.9-1.1l-0.8-1.2l-0.7-1.2
				l-0.6-1.2l-0.4-1.3l-0.3-1.3l-0.2-1.3l-0.1-1.3l0.1-1.3l0.2-1.3l0.3-1.3l0.4-1.3l0.5-1.2l0.6-1.2l0.7-1.2l0.9-1.1l1-1l1.1-0.9
				l1.1-0.8l1.2-0.7l1.2-0.6l1.3-0.4l1.3-0.3l1.3-0.2l1.3-0.1l1.3,0.1l1.3,0.2l0,0l1.3,0.3L302.2,100z"/>
		</g>
		<g>
			<g>
				<path id="b9tSm2LcR_1_" class="st7" d="M203,192.3l1.2,0.5l1.2,0.6l1.1,0.8l1.1,0.9l1,1l0.9,1.1l0.8,1.2l0.7,1.2l0.6,1.2
					l0.4,1.3l0.3,1.3l0.2,1.3l0.1,1.3l0,1.3l-0.2,1.3l-0.3,1.3l-0.4,1.3l-0.5,1.2l-0.6,1.2l-0.8,1.2l-0.9,1.1l-1,1l-1.1,0.9
					l-1.1,0.8l-1.2,0.7l-1.2,0.6l-1.3,0.4l-1.3,0.3l-1.3,0.2l-1.3,0.1l-1.3-0.1l-1.3-0.2l-1.3-0.3l-1.3-0.4l-1.2-0.5l-1.2-0.6
					l-1.1-0.8l-1.1-0.9l-1-1l-0.9-1.1l-0.8-1.1l-0.7-1.2l-0.5-1.2l-0.4-1.3l-0.3-1.3l-0.2-1.3l-0.1-1.3l0.1-1.3l0.2-1.3l0.3-1.3
					l0.4-1.3l0.5-1.2l0.6-1.2l0.8-1.2l0.9-1.1l1-1l1.1-0.9l1.1-0.8l1.2-0.7l1.2-0.5l1.3-0.4l1.3-0.3l1.3-0.2l1.3-0.1l1.3,0l1.3,0.2
					l0,0l1.3,0.3L203,192.3z M250.2,148.4l1.2,0.5l1.2,0.6l1.1,0.8l1.1,0.9l1,1l0.9,1.1l0.8,1.1l0.7,1.2l0.6,1.2l0.4,1.3l0.3,1.3
					l0.2,1.3l0.1,1.3l0,1.3l-0.2,1.3l-0.3,1.3l-0.4,1.3l-0.5,1.2l-0.6,1.2l-0.8,1.1l-0.9,1.1l-1,1l-1.1,0.9l-1.1,0.8l-1.2,0.7
					l-1.2,0.5l-1.3,0.4l-1.3,0.3l-1.3,0.2l-1.3,0.1l-1.3-0.1l-1.3-0.2l-1.3-0.3l-1.3-0.4l-1.2-0.5l-1.2-0.6l-1.1-0.8l-1.1-0.9l-1-1
					l-0.9-1.1l-0.8-1.1l-0.7-1.2l-0.6-1.2l-0.4-1.3l-0.3-1.3l-0.2-1.3l-0.1-1.3l0-1.3l0.2-1.3l0.3-1.3l0.4-1.3l0.5-1.2l0.6-1.2
					l0.8-1.1l0.9-1.1l1-1l1.1-0.9l1.1-0.8l1.2-0.7l1.2-0.5l1.3-0.4l1.3-0.3l1.3-0.2l1.3-0.1l1.3,0.1l1.3,0.2l0,0l1.3,0.3
					L250.2,148.4z M302.2,100l1.2,0.5l1.2,0.6l1.1,0.8l1.1,0.9l1,1l0.9,1.1l0.8,1.1l0.7,1.2l0.5,1.2l0.4,1.3l0.3,1.3l0.2,1.3
					l0.1,1.3l0,1.3l-0.2,1.3l-0.3,1.3l-0.4,1.3l-0.5,1.2l-0.6,1.2l-0.8,1.1l-0.9,1.1l-1,1l-1.1,0.9l-1.2,0.8l-1.2,0.7l-1.2,0.5
					l-1.3,0.4l-1.3,0.3l-1.3,0.2l-1.3,0.1l-1.3,0l-1.3-0.2l-1.3-0.3l-1.3-0.4l-1.2-0.5l-1.2-0.6l-1.2-0.8l-1.1-0.9l-1-1l-0.9-1.1
					l-0.8-1.2l-0.7-1.2l-0.6-1.2l-0.4-1.3l-0.3-1.3l-0.2-1.3l-0.1-1.3l0.1-1.3l0.2-1.3l0.3-1.3l0.4-1.3l0.5-1.2l0.6-1.2l0.7-1.2
					l0.9-1.1l1-1l1.1-0.9l1.1-0.8l1.2-0.7l1.2-0.6l1.3-0.4l1.3-0.3l1.3-0.2l1.3-0.1l1.3,0.1l1.3,0.2l0,0l1.3,0.3L302.2,100z"/>
			</g>
		</g>
	</g>
	<g class="st8">
		<g>
			<path id="a2InmSoVAX" class="st1" d="M187.7,33.6l26.3,71.7l33.5,59.2"/>
		</g>
		<g>
			<g>
				<path id="a2InmSoVAX_1_" class="st2" d="M187.7,33.6l26.3,71.7l33.5,59.2"/>
			</g>
		</g>
	</g>
</g>
</svg>
