<?xml version="1.0" encoding="UTF-8" standalone="no"?>
<!DOCTYPE svg PUBLIC "-//W3C//DTD SVG 1.1//EN" "http://www.w3.org/Graphics/SVG/1.1/DTD/svg11.dtd">
<svg version="1.1" xmlns="http://www.w3.org/2000/svg" xmlns:xlink="http://www.w3.org/1999/xlink" preserveAspectRatio="xMidYMid meet" viewBox="118.4566099965945 162.62308542293937 344.50490385888384 226.07866566009824" width="340.5" height="222.08"><defs><path d="M450.44 385.7C384.25 385.7 195.18 385.7 128.98 385.7C123.72 385.7 119.46 381.44 119.46 376.18C119.46 333.67 119.46 215.67 119.46 173.15C119.46 167.89 123.72 163.62 128.98 163.62C195.18 163.62 384.25 163.62 450.44 163.62C455.7 163.62 459.96 167.89 459.96 173.15C459.96 215.67 459.96 333.67 459.96 376.18C459.96 381.44 455.7 385.7 450.44 385.7Z" id="eodcfyIqC"></path><radialGradient id="gradientcnxS4IZzo" gradientUnits="userSpaceOnUse" cx="119.46" cy="381.3" dx="433.45" dy="192.3" r="366.49"><stop style="stop-color: #8860d0;stop-opacity: 1" offset="0%"></stop><stop style="stop-color: #59b9ea;stop-opacity: 0.87" offset="100%"></stop></radialGradient><path d="M217.08 210.28L350.75 319.06" id="a5Q1OOF1D"></path><path d="M402.13 271.3L293.73 194.21L214.67 210.64L192.59 305.37L301.78 358.81" id="a4fzFy4tfJ"></path><path d="M195 305.02L321.31 262.46L307.26 358.45" id="bkrwsVR5I"></path><path d="M217.08 210.28L402.13 270.94" id="d5UBawl05"></path><path d="M353.32 319.06L197.57 305.02L298.71 193.85" id="ifGifvLV7"></path><path d="M404.54 270.94L321.31 262.46L217.08 210.28" id="j2aLGfv7ja"></path><path d="M217.08 196.23C209.32 196.23 203.03 202.52 203.03 210.28C203.03 218.03 209.32 224.33 217.08 224.33C224.83 224.33 231.12 218.03 231.12 210.28C231.12 202.52 224.83 196.23 217.08 196.23Z" id="e88XvuNAp"></path><path d="M296.13 193.85L307.26 360.86L219.08 212.34" id="b49i3UgHi"></path><path d="M195 290.96C187.25 290.96 180.95 297.26 180.95 305.02C180.95 312.77 187.25 319.06 195 319.06C202.76 319.06 209.05 312.77 209.05 305.02C209.05 297.26 202.76 290.96 195 290.96Z" id="a1QJoQf9xD"></path><path d="M296.13 179.79C288.38 179.79 282.09 186.09 282.09 193.85C282.09 201.6 288.38 207.9 296.13 207.9C303.88 207.9 310.18 201.6 310.18 193.85C310.18 186.09 303.88 179.79 296.13 179.79Z" id="a36OInZnvn"></path><path d="M321.31 248.42C313.56 248.42 307.26 254.71 307.26 262.46C307.26 270.22 313.56 276.51 321.31 276.51C329.07 276.51 335.37 270.22 335.37 262.46C335.37 254.71 329.07 248.42 321.31 248.42Z" id="bM9V6tEQD"></path><path d="M404.54 270.94L350.75 316.7L304.19 358.45" id="d1Dglx62Or"></path><path d="M310.75 345.66L311.94 346.15L313.09 346.76L314.18 347.49L315.21 348.33L316.18 349.27L317.06 350.3L317.81 351.4L318.45 352.54L318.98 353.72L319.39 354.94L319.69 356.18L319.88 357.44L319.94 358.71L319.9 359.98L319.74 361.24L319.46 362.48L319.08 363.7L318.58 364.89L317.97 366.03L317.25 367.13L316.42 368.16L315.47 369.13L314.43 370L313.34 370.76L312.2 371.4L311.02 371.93L309.8 372.34L308.56 372.64L307.29 372.82L306.03 372.89L304.76 372.84L303.5 372.69L302.25 372.41L301.03 372.03L299.86 371.53L298.71 370.92L297.62 370.19L296.59 369.37L295.61 368.41L294.74 367.38L293.98 366.29L293.33 365.15L292.81 363.96L292.4 362.75L292.11 361.5L291.92 360.24L291.85 358.97L291.9 357.71L292.06 356.45L292.32 355.2L292.71 353.98L293.21 352.79L293.82 351.66L294.54 350.56L295.38 349.52L296.32 348.56L297.36 347.69L298.45 346.93L299.59 346.28L300.78 345.76L302 345.35L303.24 345.04L304.49 344.87L305.76 344.8L307.04 344.84L308.29 345.01L308.29 345.01L309.53 345.27L310.75 345.66ZM355.91 303.63L357.09 304.13L358.23 304.74L359.32 305.46L360.37 306.29L361.33 307.24L362.2 308.28L362.97 309.37L363.61 310.51L364.14 311.7L364.55 312.91L364.85 314.15L365.03 315.41L365.09 316.69L365.05 317.95L364.89 319.21L364.62 320.46L364.24 321.68L363.74 322.85L363.13 324L362.4 325.09L361.56 326.13L360.62 327.1L359.59 327.97L358.5 328.73L357.35 329.38L356.17 329.9L354.95 330.31L353.71 330.6L352.45 330.79L351.18 330.86L349.91 330.81L348.66 330.65L347.41 330.38L346.19 330L345 329.49L343.86 328.89L342.77 328.17L341.73 327.33L340.77 326.39L339.89 325.35L339.13 324.26L338.49 323.12L337.96 321.93L337.55 320.71L337.25 319.48L337.08 318.22L337.01 316.94L337.05 315.67L337.2 314.42L337.48 313.17L337.86 311.95L338.36 310.77L338.97 309.62L339.7 308.53L340.53 307.5L341.48 306.53L342.51 305.65L343.6 304.9L344.75 304.25L345.93 303.73L347.14 303.32L348.39 303.02L349.65 302.83L350.92 302.77L352.18 302.82L353.44 302.97L353.44 302.97L354.69 303.25L355.91 303.63ZM405.61 257.36L406.79 257.87L407.94 258.47L409.03 259.19L410.07 260.03L411.03 260.98L411.91 262.01L412.66 263.1L413.31 264.24L413.83 265.43L414.25 266.65L414.55 267.89L414.73 269.15L414.8 270.42L414.76 271.69L414.59 272.94L414.32 274.19L413.93 275.41L413.44 276.59L412.83 277.74L412.1 278.83L411.27 279.87L410.33 280.83L409.29 281.71L408.19 282.46L407.05 283.11L405.87 283.63L404.65 284.04L403.41 284.35L402.15 284.52L400.89 284.59L399.62 284.55L398.35 284.39L397.11 284.12L395.9 283.73L394.71 283.24L393.57 282.63L392.47 281.9L391.44 281.07L390.46 280.12L389.59 279.09L388.83 277.99L388.19 276.85L387.66 275.66L387.25 274.46L386.96 273.21L386.77 271.95L386.7 270.68L386.75 269.42L386.91 268.15L387.18 266.91L387.57 265.69L388.07 264.51L388.68 263.37L389.39 262.27L390.23 261.23L391.18 260.26L392.21 259.39L393.3 258.63L394.44 257.99L395.63 257.46L396.85 257.05L398.09 256.76L399.35 256.57L400.62 256.5L401.89 256.55L403.15 256.71L403.15 256.71L404.39 256.98L405.61 257.36Z" id="b9tSm2LcR"></path><path d="M296.13 193.85L321.31 262.46L353.32 319.06" id="a2InmSoVAX"></path></defs><g><g><use xlink:href="#eodcfyIqC" opacity="1" fill="url(#gradientcnxS4IZzo)"></use><g><use xlink:href="#eodcfyIqC" opacity="1" fill-opacity="0" stroke="#000000" stroke-width="1" stroke-opacity="0"></use></g></g><g><use xlink:href="#a5Q1OOF1D" opacity="1" fill="#000000" fill-opacity="0"></use><g><use xlink:href="#a5Q1OOF1D" opacity="1" fill-opacity="0" stroke="#ffffff" stroke-width="4" stroke-opacity="1"></use></g></g><g><use xlink:href="#a4fzFy4tfJ" opacity="1" fill="#000000" fill-opacity="0"></use><g><use xlink:href="#a4fzFy4tfJ" opacity="1" fill-opacity="0" stroke="#ffffff" stroke-width="4" stroke-opacity="1"></use></g></g><g><use xlink:href="#bkrwsVR5I" opacity="1" fill="#000000" fill-opacity="0"></use><g><use xlink:href="#bkrwsVR5I" opacity="1" fill-opacity="0" stroke="#ffffff" stroke-width="4" stroke-opacity="1"></use></g></g><g><use xlink:href="#d5UBawl05" opacity="1" fill="#000000" fill-opacity="0"></use><g><use xlink:href="#d5UBawl05" opacity="1" fill-opacity="0" stroke="#ffffff" stroke-width="4" stroke-opacity="1"></use></g></g><g><use xlink:href="#ifGifvLV7" opacity="0.77" fill="#000000" fill-opacity="0"></use><g><use xlink:href="#ifGifvLV7" opacity="0.77" fill-opacity="0" stroke="#ffffff" stroke-width="4" stroke-opacity="1"></use></g></g><g><use xlink:href="#j2aLGfv7ja" opacity="0.68" fill="#000000" fill-opacity="0"></use><g><use xlink:href="#j2aLGfv7ja" opacity="0.68" fill-opacity="0" stroke="#ffffff" stroke-width="4" stroke-opacity="1"></use></g></g><g><use xlink:href="#e88XvuNAp" opacity="1" fill="#ffffff" fill-opacity="1"></use><g><use xlink:href="#e88XvuNAp" opacity="1" fill-opacity="0" stroke="#000000" stroke-width="1" stroke-opacity="0"></use></g></g><g><use xlink:href="#b49i3UgHi" opacity="0.58" fill="#000000" fill-opacity="0"></use><g><use xlink:href="#b49i3UgHi" opacity="0.58" fill-opacity="0" stroke="#ffffff" stroke-width="4" stroke-opacity="1"></use></g></g><g><use xlink:href="#a1QJoQf9xD" opacity="1" fill="#ffffff" fill-opacity="1"></use><g><use xlink:href="#a1QJoQf9xD" opacity="1" fill-opacity="0" stroke="#000000" stroke-width="1" stroke-opacity="0"></use></g></g><g><use xlink:href="#a36OInZnvn" opacity="1" fill="#ffffff" fill-opacity="1"></use><g><use xlink:href="#a36OInZnvn" opacity="1" fill-opacity="0" stroke="#000000" stroke-width="1" stroke-opacity="0"></use></g></g><g><use xlink:href="#bM9V6tEQD" opacity="1" fill="#ffffff" fill-opacity="1"></use><g><use xlink:href="#bM9V6tEQD" opacity="1" fill-opacity="0" stroke="#000000" stroke-width="1" stroke-opacity="0"></use></g></g><g><use xlink:href="#d1Dglx62Or" opacity="1" fill="#000000" fill-opacity="0"></use><g><use xlink:href="#d1Dglx62Or" opacity="1" fill-opacity="0" stroke="#ffffff" stroke-width="4" stroke-opacity="1"></use></g></g><g><use xlink:href="#b9tSm2LcR" opacity="1" fill="#ffffff" fill-opacity="1"></use><g><use xlink:href="#b9tSm2LcR" opacity="1" fill-opacity="0" stroke="#000000" stroke-width="1" stroke-opacity="0"></use></g></g><g><use xlink:href="#a2InmSoVAX" opacity="1" fill="#000000" fill-opacity="0"></use><g><use xlink:href="#a2InmSoVAX" opacity="1" fill-opacity="0" stroke="#ffffff" stroke-width="4" stroke-opacity="1"></use></g></g></g></svg>