<?xml version="1.0" encoding="UTF-8" standalone="no"?>
<!DOCTYPE svg PUBLIC "-//W3C//DTD SVG 1.1//EN" "http://www.w3.org/Graphics/SVG/1.1/DTD/svg11.dtd">
<svg version="1.1" xmlns="http://www.w3.org/2000/svg" xmlns:xlink="http://www.w3.org/1999/xlink" preserveAspectRatio="xMidYMid meet" viewBox="81.22950819672127 78.7704918032787 400.6393442622952 400.016393442623" width="376.64" height="376.02"><defs><path d="M391.97 93.77C397.49 93.77 401.97 98.25 401.97 103.77C401.97 162.92 401.97 330.36 401.97 389.51C401.97 395.03 397.49 399.51 391.97 399.51C332.82 399.51 165.38 399.51 106.23 399.51C100.71 399.51 96.23 395.03 96.23 389.51C96.23 330.36 96.23 162.92 96.23 103.77C96.23 98.25 100.71 93.77 106.23 93.77C165.38 93.77 332.82 93.77 391.97 93.77Z" id="fkDHdOyaK"></path><path d="M426.97 128.77C432.49 128.77 436.97 133.25 436.97 138.77C436.97 197.92 436.97 365.36 436.97 424.51C436.97 430.03 432.49 434.51 426.97 434.51C367.82 434.51 200.38 434.51 141.23 434.51C135.71 434.51 131.23 430.03 131.23 424.51C131.23 365.36 131.23 197.92 131.23 138.77C131.23 133.25 135.71 128.77 141.23 128.77C200.38 128.77 367.82 128.77 426.97 128.77Z" id="b1JkSAoYeu"></path><path d="M462.87 164.05C468.39 164.05 472.87 168.53 472.87 174.05C472.87 233.2 472.87 400.64 472.87 459.79C472.87 465.31 468.39 469.79 462.87 469.79C403.72 469.79 236.28 469.79 177.13 469.79C171.61 469.79 167.13 465.31 167.13 459.79C167.13 400.64 167.13 233.2 167.13 174.05C167.13 168.53 171.61 164.05 177.13 164.05C236.28 164.05 403.72 164.05 462.87 164.05Z" id="b1kbwstIHz"></path></defs><g><g><g><filter id="shadow13657351" x="65.23" y="62.77" width="370.74" height="370.74" filterUnits="userSpaceOnUse" primitiveUnits="userSpaceOnUse"><feFlood></feFlood><feComposite in2="SourceAlpha" operator="in"></feComposite><feGaussianBlur stdDeviation="3.32"></feGaussianBlur><feOffset dx="-3" dy="-3" result="afterOffset"></feOffset><feFlood flood-color="#000000" flood-opacity="0.29"></feFlood><feComposite in2="afterOffset" operator="in"></feComposite><feMorphology operator="dilate" radius="1"></feMorphology><feComposite in2="SourceAlpha" operator="out"></feComposite></filter><path d="M391.97 93.77C397.49 93.77 401.97 98.25 401.97 103.77C401.97 162.92 401.97 330.36 401.97 389.51C401.97 395.03 397.49 399.51 391.97 399.51C332.82 399.51 165.38 399.51 106.23 399.51C100.71 399.51 96.23 395.03 96.23 389.51C96.23 330.36 96.23 162.92 96.23 103.77C96.23 98.25 100.71 93.77 106.23 93.77C165.38 93.77 332.82 93.77 391.97 93.77Z" id="azypVfucs" fill="white" fill-opacity="1" filter="url(#shadow13657351)"></path></g><use xlink:href="#fkDHdOyaK" opacity="1" fill="#8860d0" fill-opacity="1"></use></g><g><g><filter id="shadow2929970" x="100.23" y="97.77" width="370.74" height="370.74" filterUnits="userSpaceOnUse" primitiveUnits="userSpaceOnUse"><feFlood></feFlood><feComposite in2="SourceAlpha" operator="in"></feComposite><feGaussianBlur stdDeviation="3.32"></feGaussianBlur><feOffset dx="-3" dy="-3" result="afterOffset"></feOffset><feFlood flood-color="#000000" flood-opacity="0.3"></feFlood><feComposite in2="afterOffset" operator="in"></feComposite><feMorphology operator="dilate" radius="1"></feMorphology><feComposite in2="SourceAlpha" operator="out"></feComposite></filter><path d="M426.97 128.77C432.49 128.77 436.97 133.25 436.97 138.77C436.97 197.92 436.97 365.36 436.97 424.51C436.97 430.03 432.49 434.51 426.97 434.51C367.82 434.51 200.38 434.51 141.23 434.51C135.71 434.51 131.23 430.03 131.23 424.51C131.23 365.36 131.23 197.92 131.23 138.77C131.23 133.25 135.71 128.77 141.23 128.77C200.38 128.77 367.82 128.77 426.97 128.77Z" id="c2vztZrMjd" fill="white" fill-opacity="1" filter="url(#shadow2929970)"></path></g><use xlink:href="#b1JkSAoYeu" opacity="1" fill="#74e0ef" fill-opacity="1"></use></g><g><g><filter id="shadow5395322" x="136.13" y="133.05" width="370.74" height="370.74" filterUnits="userSpaceOnUse" primitiveUnits="userSpaceOnUse"><feFlood></feFlood><feComposite in2="SourceAlpha" operator="in"></feComposite><feGaussianBlur stdDeviation="3.32"></feGaussianBlur><feOffset dx="-3" dy="-3" result="afterOffset"></feOffset><feFlood flood-color="#000000" flood-opacity="0.3"></feFlood><feComposite in2="afterOffset" operator="in"></feComposite><feMorphology operator="dilate" radius="1"></feMorphology><feComposite in2="SourceAlpha" operator="out"></feComposite></filter><path d="M462.87 164.05C468.39 164.05 472.87 168.53 472.87 174.05C472.87 233.2 472.87 400.64 472.87 459.79C472.87 465.31 468.39 469.79 462.87 469.79C403.72 469.79 236.28 469.79 177.13 469.79C171.61 469.79 167.13 465.31 167.13 459.79C167.13 400.64 167.13 233.2 167.13 174.05C167.13 168.53 171.61 164.05 177.13 164.05C236.28 164.05 403.72 164.05 462.87 164.05Z" id="a10OdS4Vyx" fill="white" fill-opacity="1" filter="url(#shadow5395322)"></path></g><use xlink:href="#b1kbwstIHz" opacity="1" fill="#ffffff" fill-opacity="1"></use></g></g></svg>