<?xml version="1.0" encoding="utf-8"?>
<!-- Generator: Adobe Illustrator 24.0.2, SVG Export Plug-In . SVG Version: 6.00 Build 0)  -->
<svg version="1.1" xmlns="http://www.w3.org/2000/svg" xmlns:xlink="http://www.w3.org/1999/xlink" x="0px" y="0px"
	 viewBox="0 0 362 236.1" style="enable-background:new 0 0 362 236.1;" xml:space="preserve">
<style type="text/css">
	.st0{fill:url(#SVGID_1_);}
	.st1{opacity:0.57;fill:none;stroke:#FFFFFF;stroke-width:5;stroke-miterlimit:10;enable-background:new    ;}
	.st2{opacity:0.64;fill:none;stroke:#FFFFFF;stroke-width:6;stroke-miterlimit:10;enable-background:new    ;}
	.st3{fill:none;stroke:#FFFFFF;stroke-width:6;stroke-miterlimit:10;}
	.st4{fill:#FFFFFF;enable-background:new    ;}
	.st5{fill:#FFFFFF;}
	.st6{opacity:0.32;fill:none;stroke:#FFFFFF;stroke-width:5;stroke-miterlimit:10;enable-background:new    ;}
	.st7{fill:#FFFFFF;stroke:#FFFFFF;stroke-width:3;stroke-miterlimit:10;}
	.st8{opacity:0.42;fill:none;stroke:#FFFFFF;stroke-width:5;stroke-miterlimit:10;enable-background:new    ;}
	.st9{opacity:0.53;fill:none;stroke:#FFFFFF;stroke-width:5;stroke-miterlimit:10;enable-background:new    ;}
	.st10{opacity:0.63;fill:none;stroke:#FFFFFF;stroke-width:5;stroke-miterlimit:10;enable-background:new    ;}
	.st11{opacity:0.69;fill:none;stroke:#FFFFFF;stroke-width:5;stroke-miterlimit:10;enable-background:new    ;}
	.st12{opacity:0.86;fill:none;stroke:#FFFFFF;stroke-width:5;stroke-miterlimit:10;enable-background:new    ;}
</style>
<g id="Capa_2_1_">
	<g>
		
			<linearGradient id="SVGID_1_" gradientUnits="userSpaceOnUse" x1="36.8875" y1="-24.2125" x2="325.1125" y2="264.0125" gradientTransform="matrix(1 0 0 -1 0 238)">
			<stop  offset="0" style="stop-color:#1EC16B"/>
			<stop  offset="0.5051" style="stop-color:#2D918D"/>
			<stop  offset="1" style="stop-color:#4A31D1"/>
		</linearGradient>
		<path class="st0" d="M3,224.2c0,5.5,4.5,10,10,10h336c5.5,0,10-4.5,10-10V12c0-5.5-4.5-10-10-10H13C7.5,2,3,6.5,3,12V224.2z"/>
	</g>
</g>
<g id="Capa_3">
	<g id="Capa_5">
		<path class="st1" d="M367.8,174.5c-32.4,21.4-106.2,32.9-137.1,8.9c-26.5-20.6-31.5-45.6-50.8-73.6C136,46.2,50.1,32.2,15.7,32.2
			c-25.5,0-63.5,8.7-56.3,11"/>
		<path class="st2" d="M-44.6,40.9c10.3,16.6,27.8,40.3,55.2,62.4c13.9,11.2,21,16.9,32,21.6c45.3,19.3,101.2-2.6,132.4-14.8
			c13.7-5.4,40-16.9,75.6-15.3c2.2,0.1,4.4,0.2,7.6,0.5c41.4,4.3,69.1,30.5,78.6,39.5c1.9,1.8,3.4,3.3,3.8,3.7
			c11.7,11.8,19.3,23,24,30.8"/>
		<path class="st3" d="M399.8,162.9"/>
		<path class="st3" d="M365.8,171.7"/>
	</g>
	<circle class="st4" cx="53.8" cy="38.7" r="13.8"/>
	<circle class="st4" cx="54.9" cy="128.7" r="14.9"/>
	<circle class="st4" cx="153.9" cy="80.8" r="12.5"/>
	<circle class="st4" cx="202.2" cy="152.4" r="12.5"/>
	<circle class="st4" cx="19.1" cy="110.1" r="12.5"/>
	<circle class="st4" cx="111.3" cy="56.6" r="13.4"/>
	<circle class="st4" cx="97.9" cy="130" r="16.2"/>
	<circle class="st4" cx="141.6" cy="121.2" r="14.8"/>
	<circle class="st4" cx="180" cy="108.6" r="12.5"/>
	<circle class="st5" cx="221.1" cy="96.1" r="13.7"/>
	<circle class="st4" cx="324.3" cy="125" r="13.4"/>
	<circle class="st4" cx="275.5" cy="196.7" r="16"/>
	<circle class="st4" cx="272.3" cy="98.6" r="15.3"/>
	<circle class="st4" cx="229.1" cy="186" r="15.3"/>
	<line class="st6" x1="53.8" y1="38.7" x2="19.1" y2="110.1"/>
	<path class="st7" d="M211-42.3"/>
	<line class="st8" x1="111.3" y1="56.6" x2="54.9" y2="125"/>
	<line class="st9" x1="95" y1="128.7" x2="152.7" y2="80.8"/>
	<line class="st10" x1="221.1" y1="96.1" x2="202.2" y2="152.4"/>
	<line class="st11" x1="272.3" y1="98.6" x2="229.1" y2="186"/>
	<line class="st12" x1="324.3" y1="125" x2="275.5" y2="196.7"/>
	<path class="st7" d="M394.6,203.3"/>
</g>
</svg>
