<?xml version="1.0" encoding="UTF-8" standalone="no"?>
<!DOCTYPE svg PUBLIC "-//W3C//DTD SVG 1.1//EN" "http://www.w3.org/Graphics/SVG/1.1/DTD/svg11.dtd">
<svg version="1.1" xmlns="http://www.w3.org/2000/svg" xmlns:xlink="http://www.w3.org/1999/xlink" preserveAspectRatio="xMidYMid meet" viewBox="6.25737704918042 5.670248091239827 355.97619047619077 232.57142857142873" width="350.48" height="228.57"><defs><path d="M359.23 16.47C359.23 60.22 359.23 181.68 359.23 225.43C359.23 230.85 354.84 235.24 349.43 235.24C281.3 235.24 86.7 235.24 18.57 235.24C13.15 235.24 8.76 230.85 8.76 225.43C8.76 181.68 8.76 60.22 8.76 16.47C8.76 11.06 13.15 6.67 18.57 6.67C86.7 6.67 281.3 6.67 349.43 6.67C354.84 6.67 359.23 11.06 359.23 16.47Z" id="aRmFgME0r"></path><radialGradient id="gradiente5Ha7RbMu" gradientUnits="userSpaceOnUse" cx="8.76" cy="230.71" dx="331.95" dy="36.18" r="377.22"><stop style="stop-color: #8860d0;stop-opacity: 1" offset="0%"></stop><stop style="stop-color: #59b9ea;stop-opacity: 0.87" offset="100%"></stop></radialGradient><path d="M78.15 119.21L69.52 112.72L69.52 116.83L60.37 116.83L60.37 121.6L69.52 121.6L69.52 125.72L78.15 119.21Z" id="b3TDcAJ7gz"></path><path d="M117.96 42.31L117.96 196.87" id="adDXWdhgg"></path><path d="M157.78 100.96C157.78 110.63 157.78 127.79 157.78 137.47C157.78 144.01 152.47 149.32 145.93 149.32C132.38 149.32 103.55 149.32 90 149.32C83.45 149.32 78.15 144.01 78.15 137.47C78.15 127.79 78.15 110.63 78.15 100.96C78.15 94.41 83.45 89.11 90 89.11C103.55 89.11 132.38 89.11 145.93 89.11C152.47 89.11 157.78 94.41 157.78 100.96Z" id="a7dx8Djnti"></path><path d="M117.96 225.34C105.22 225.34 94.89 214.99 94.89 202.26C94.89 189.53 105.22 179.18 117.96 179.18C130.7 179.18 141.03 189.53 141.03 202.26C141.03 214.99 130.7 225.34 117.96 225.34Z" id="a1rPcjRpmK"></path><path d="M117.96 64C105.22 64 94.89 53.67 94.89 40.93C94.89 28.19 105.22 17.86 117.96 17.86C130.7 17.86 141.03 28.19 141.03 40.93C141.03 53.67 130.7 64 117.96 64Z" id="b3V7clk9s"></path><path d="M8.76 119.21L53.05 119.21L61.72 119.21" id="kquctJFhg"></path><path d="M210.53 120.17L201.9 113.67L201.9 117.78L192.75 117.78L192.75 122.56L201.9 122.56L201.9 126.67L210.53 120.17Z" id="e72d0FrJKb"></path><path d="M250.34 43.26L250.34 197.82" id="d1asKDyyhz"></path><path d="M290.16 101.91C290.16 111.58 290.16 128.75 290.16 138.42C290.16 144.97 284.85 150.27 278.31 150.27C264.76 150.27 235.93 150.27 222.38 150.27C215.83 150.27 210.53 144.97 210.53 138.42C210.53 128.75 210.53 111.58 210.53 101.91C210.53 95.37 215.83 90.06 222.38 90.06C235.93 90.06 264.76 90.06 278.31 90.06C284.85 90.06 290.16 95.37 290.16 101.91Z" id="d1nSbK60LL"></path><path d="M250.34 226.29C237.6 226.29 227.27 215.95 227.27 203.21C227.27 190.48 237.6 180.14 250.34 180.14C263.08 180.14 273.41 190.48 273.41 203.21C273.41 215.95 263.08 226.29 250.34 226.29Z" id="a491znqAah"></path><path d="M250.34 64.96C237.6 64.96 227.27 54.62 227.27 41.88C227.27 29.15 237.6 18.81 250.34 18.81C263.08 18.81 273.41 29.15 273.41 41.88C273.41 54.62 263.08 64.96 250.34 64.96Z" id="f73JNm8Wi"></path><path d="M152.5 120.55L194.1 120.17" id="dpl76M2Je"></path><path d="M288.76 120.13L347.53 120.14L359.02 120.14" id="a4mDQsd3TZ"></path></defs><g><g><use xlink:href="#aRmFgME0r" opacity="1" fill="url(#gradiente5Ha7RbMu)"></use><g><use xlink:href="#aRmFgME0r" opacity="1" fill-opacity="0" stroke="#000000" stroke-width="1" stroke-opacity="0"></use></g></g><g><use xlink:href="#b3TDcAJ7gz" opacity="1" fill="#ffffff" fill-opacity="1"></use><g><use xlink:href="#b3TDcAJ7gz" opacity="1" fill-opacity="0" stroke="#000000" stroke-width="1" stroke-opacity="0"></use></g></g><g><use xlink:href="#adDXWdhgg" opacity="1" fill="#000000" fill-opacity="0"></use><g><use xlink:href="#adDXWdhgg" opacity="1" fill-opacity="0" stroke="#ffffff" stroke-width="5" stroke-opacity="1"></use></g></g><g><use xlink:href="#a7dx8Djnti" opacity="1" fill="#ffffff" fill-opacity="1"></use><g><use xlink:href="#a7dx8Djnti" opacity="1" fill-opacity="0" stroke="#000000" stroke-width="1" stroke-opacity="0"></use></g></g><g><use xlink:href="#a1rPcjRpmK" opacity="1" fill="#ffffff" fill-opacity="1"></use><g><use xlink:href="#a1rPcjRpmK" opacity="1" fill-opacity="0" stroke="#000000" stroke-width="1" stroke-opacity="0"></use></g></g><g><use xlink:href="#b3V7clk9s" opacity="1" fill="#ffffff" fill-opacity="1"></use><g><use xlink:href="#b3V7clk9s" opacity="1" fill-opacity="0" stroke="#000000" stroke-width="1" stroke-opacity="0"></use></g></g><g><use xlink:href="#kquctJFhg" opacity="1" fill="#000000" fill-opacity="0"></use><g><use xlink:href="#kquctJFhg" opacity="1" fill-opacity="0" stroke="#ffffff" stroke-width="5" stroke-opacity="1"></use></g></g><g><use xlink:href="#e72d0FrJKb" opacity="1" fill="#ffffff" fill-opacity="1"></use><g><use xlink:href="#e72d0FrJKb" opacity="1" fill-opacity="0" stroke="#000000" stroke-width="1" stroke-opacity="0"></use></g></g><g><use xlink:href="#d1asKDyyhz" opacity="1" fill="#000000" fill-opacity="0"></use><g><use xlink:href="#d1asKDyyhz" opacity="1" fill-opacity="0" stroke="#ffffff" stroke-width="5" stroke-opacity="1"></use></g></g><g><use xlink:href="#d1nSbK60LL" opacity="1" fill="#ffffff" fill-opacity="1"></use><g><use xlink:href="#d1nSbK60LL" opacity="1" fill-opacity="0" stroke="#000000" stroke-width="1" stroke-opacity="0"></use></g></g><g><use xlink:href="#a491znqAah" opacity="1" fill="#ffffff" fill-opacity="1"></use><g><use xlink:href="#a491znqAah" opacity="1" fill-opacity="0" stroke="#000000" stroke-width="1" stroke-opacity="0"></use></g></g><g><use xlink:href="#f73JNm8Wi" opacity="1" fill="#ffffff" fill-opacity="1"></use><g><use xlink:href="#f73JNm8Wi" opacity="1" fill-opacity="0" stroke="#000000" stroke-width="1" stroke-opacity="0"></use></g></g><g><use xlink:href="#dpl76M2Je" opacity="1" fill="#000000" fill-opacity="0"></use><g><use xlink:href="#dpl76M2Je" opacity="1" fill-opacity="0" stroke="#ffffff" stroke-width="5" stroke-opacity="1"></use></g></g><g><use xlink:href="#a4mDQsd3TZ" opacity="1" fill="#000000" fill-opacity="0"></use><g><use xlink:href="#a4mDQsd3TZ" opacity="1" fill-opacity="0" stroke="#ffffff" stroke-width="5" stroke-opacity="1"></use></g></g></g></svg>