<?xml version="1.0" encoding="utf-8"?>
<!-- Generator: Adobe Illustrator 24.0.2, SVG Export Plug-In . SVG Version: 6.00 Build 0)  -->
<svg version="1.1" xmlns="http://www.w3.org/2000/svg" xmlns:xlink="http://www.w3.org/1999/xlink" x="0px" y="0px"
	 viewBox="0 0 362 236.1" style="enable-background:new 0 0 362 236.1;" xml:space="preserve">
<style type="text/css">
	.st0{fill:url(#SVGID_1_);}
	.st1{fill:#FFFFFF;}
	.st2{fill-opacity:0;stroke:#000000;stroke-width:1.0158;stroke-miterlimit:3.9312;stroke-opacity:0;}
	.st3{fill-opacity:0;}
	.st4{fill-opacity:0;stroke:#FFFFFF;stroke-width:5.0789;stroke-miterlimit:3.9312;}
</style>
<g id="Capa_2_1_">
	<g>
		
			<linearGradient id="SVGID_1_" gradientUnits="userSpaceOnUse" x1="36.8875" y1="-24.2125" x2="325.1125" y2="264.0125" gradientTransform="matrix(1 0 0 -1 0 238)">
			<stop  offset="0" style="stop-color:#1EC16B"/>
			<stop  offset="0.5051" style="stop-color:#2D918D"/>
			<stop  offset="1" style="stop-color:#4A31D1"/>
		</linearGradient>
		<path class="st0" d="M3,224.2c0,5.5,4.5,10,10,10h336c5.5,0,10-4.5,10-10V12c0-5.5-4.5-10-10-10H13C7.5,2,3,6.5,3,12V224.2z"/>
	</g>
</g>
<g id="Capa_3">
	<g>
		<g>
			<path id="b3TDcAJ7gz" class="st1" d="M73.5,116.7l-8.8-6.6v4.2h-9.3v4.8h9.3v4.2L73.5,116.7z"/>
		</g>
		<g>
			<g>
				<path id="b3TDcAJ7gz_1_" class="st2" d="M73.5,116.7l-8.8-6.6v4.2h-9.3v4.8h9.3v4.2L73.5,116.7z"/>
			</g>
		</g>
	</g>
	<g>
		<g>
			<path id="adDXWdhgg" class="st3" d="M113.9,38.5v157"/>
		</g>
		<g>
			<g>
				<path id="adDXWdhgg_1_" class="st4" d="M113.9,38.5v157"/>
			</g>
		</g>
	</g>
	<g>
		<g>
			<path id="a7dx8Djnti" class="st1" d="M154.4,98.1c0,9.8,0,27.3,0,37.1c0,6.6-5.4,12-12,12c-13.8,0-43,0-56.8,0
				c-6.7,0-12-5.4-12-12c0-9.8,0-27.3,0-37.1c0-6.7,5.4-12,12-12c13.8,0,43,0,56.8,0C149,86.1,154.4,91.5,154.4,98.1z"/>
		</g>
		<g>
			<g>
				<path id="a7dx8Djnti_1_" class="st2" d="M154.4,98.1c0,9.8,0,27.3,0,37.1c0,6.6-5.4,12-12,12c-13.8,0-43,0-56.8,0
					c-6.7,0-12-5.4-12-12c0-9.8,0-27.3,0-37.1c0-6.7,5.4-12,12-12c13.8,0,43,0,56.8,0C149,86.1,154.4,91.5,154.4,98.1z"/>
			</g>
		</g>
	</g>
	<g>
		<g>
			<path id="a1rPcjRpmK" class="st1" d="M113.9,224.5c-12.9,0-23.4-10.5-23.4-23.4c0-12.9,10.5-23.4,23.4-23.4s23.4,10.5,23.4,23.4
				C137.4,213.9,126.9,224.5,113.9,224.5z"/>
		</g>
		<g>
			<g>
				<path id="a1rPcjRpmK_1_" class="st2" d="M113.9,224.5c-12.9,0-23.4-10.5-23.4-23.4c0-12.9,10.5-23.4,23.4-23.4
					s23.4,10.5,23.4,23.4C137.4,213.9,126.9,224.5,113.9,224.5z"/>
			</g>
		</g>
	</g>
	<g>
		<g>
			<path id="b3V7clk9s" class="st1" d="M113.9,60.6c-12.9,0-23.4-10.5-23.4-23.4s10.5-23.4,23.4-23.4s23.4,10.5,23.4,23.4
				S126.9,60.6,113.9,60.6z"/>
		</g>
		<g>
			<g>
				<path id="b3V7clk9s_1_" class="st2" d="M113.9,60.6c-12.9,0-23.4-10.5-23.4-23.4s10.5-23.4,23.4-23.4s23.4,10.5,23.4,23.4
					S126.9,60.6,113.9,60.6z"/>
			</g>
		</g>
	</g>
	<g>
		<g>
			<path id="kquctJFhg" class="st3" d="M3,116.7h45h8.8"/>
		</g>
		<g>
			<g>
				<path id="kquctJFhg_1_" class="st4" d="M3,116.7h45h8.8"/>
			</g>
		</g>
	</g>
	<g>
		<g>
			<path id="e72d0FrJKb" class="st1" d="M208,117.6l-8.8-6.6v4.2h-9.3v4.9h9.3v4.2L208,117.6z"/>
		</g>
		<g>
			<g>
				<path id="e72d0FrJKb_1_" class="st2" d="M208,117.6l-8.8-6.6v4.2h-9.3v4.9h9.3v4.2L208,117.6z"/>
			</g>
		</g>
	</g>
	<g>
		<g>
			<path id="d1asKDyyhz" class="st3" d="M248.4,39.5v157"/>
		</g>
		<g>
			<g>
				<path id="d1asKDyyhz_1_" class="st4" d="M248.4,39.5v157"/>
			</g>
		</g>
	</g>
	<g>
		<g>
			<path id="d1nSbK60LL" class="st1" d="M288.8,99.1c0,9.8,0,27.3,0,37.1c0,6.7-5.4,12-12,12c-13.8,0-43,0-56.8,0
				c-6.7,0-12-5.4-12-12c0-9.8,0-27.3,0-37.1c0-6.6,5.4-12,12-12c13.8,0,43,0,56.8,0C283.4,87,288.8,92.4,288.8,99.1z"/>
		</g>
		<g>
			<g>
				<path id="d1nSbK60LL_1_" class="st2" d="M288.8,99.1c0,9.8,0,27.3,0,37.1c0,6.7-5.4,12-12,12c-13.8,0-43,0-56.8,0
					c-6.7,0-12-5.4-12-12c0-9.8,0-27.3,0-37.1c0-6.6,5.4-12,12-12c13.8,0,43,0,56.8,0C283.4,87,288.8,92.4,288.8,99.1z"/>
			</g>
		</g>
	</g>
	<g>
		<g>
			<path id="a491znqAah" class="st1" d="M248.4,225.4c-12.9,0-23.4-10.5-23.4-23.4c0-12.9,10.5-23.4,23.4-23.4
				c12.9,0,23.4,10.5,23.4,23.4C271.8,214.9,261.3,225.4,248.4,225.4z"/>
		</g>
		<g>
			<g>
				<path id="a491znqAah_1_" class="st2" d="M248.4,225.4c-12.9,0-23.4-10.5-23.4-23.4c0-12.9,10.5-23.4,23.4-23.4
					c12.9,0,23.4,10.5,23.4,23.4C271.8,214.9,261.3,225.4,248.4,225.4z"/>
			</g>
		</g>
	</g>
	<g>
		<g>
			<path id="f73JNm8Wi" class="st1" d="M248.4,61.5C235.5,61.5,225,51,225,38.1c0-12.9,10.5-23.4,23.4-23.4
				c12.9,0,23.4,10.5,23.4,23.4C271.8,51,261.3,61.5,248.4,61.5z"/>
		</g>
		<g>
			<g>
				<path id="f73JNm8Wi_1_" class="st2" d="M248.4,61.5C235.5,61.5,225,51,225,38.1c0-12.9,10.5-23.4,23.4-23.4
					c12.9,0,23.4,10.5,23.4,23.4C271.8,51,261.3,61.5,248.4,61.5z"/>
			</g>
		</g>
	</g>
	<g>
		<g>
			<path id="dpl76M2Je" class="st3" d="M149,118l42.3-0.4"/>
		</g>
		<g>
			<g>
				<path id="dpl76M2Je_1_" class="st4" d="M149,118l42.3-0.4"/>
			</g>
		</g>
	</g>
	<g>
		<g>
			<path id="a4mDQsd3TZ" class="st3" d="M287.4,117.6l59.7,0h11.7"/>
		</g>
		<g>
			<g>
				<path id="a4mDQsd3TZ_1_" class="st4" d="M287.4,117.6l59.7,0h11.7"/>
			</g>
		</g>
	</g>
</g>
</svg>
