<?xml version="1.0" encoding="utf-8"?>
<!-- Generator: Adobe Illustrator 24.0.2, SVG Export Plug-In . SVG Version: 6.00 Build 0)  -->
<svg version="1.1" xmlns="http://www.w3.org/2000/svg" xmlns:xlink="http://www.w3.org/1999/xlink" x="0px" y="0px"
	 viewBox="0 0 362 236.1" style="enable-background:new 0 0 362 236.1;" xml:space="preserve">
<style type="text/css">
	.st0{fill:url(#SVGID_1_);}
	.st1{opacity:0.9;}
	.st2{fill:#FFFFFF;}
	.st3{fill-opacity:0;stroke:#000000;stroke-width:0.9834;stroke-miterlimit:3.9334;stroke-opacity:0;}
	.st4{fill-opacity:0;}
	.st5{fill-opacity:0;stroke:#FFFFFF;stroke-width:5.9001;stroke-miterlimit:3.9334;}
	.st6{fill-opacity:0;stroke:#FFFFFF;stroke-width:4.9168;stroke-miterlimit:3.9334;}
</style>
<g id="Capa_2">
	<g>
		<linearGradient id="SVGID_1_" gradientUnits="userSpaceOnUse" x1="36.8789" y1="262.2211" x2="325.1211" y2="-26.0211">
			<stop  offset="0" style="stop-color:#1EC16B"/>
			<stop  offset="0.5051" style="stop-color:#2D918D"/>
			<stop  offset="1" style="stop-color:#4A31D1"/>
		</linearGradient>
		<path class="st0" d="M3,224.2c0,5.5,4.5,10,10,10h336c5.5,0,10-4.5,10-10V12c0-5.5-4.5-10-10-10H13C7.5,2,3,6.5,3,12V224.2z"/>
	</g>
</g>
<g id="Capa_3">
	<g class="st1">
		<g>
			<g>
				<path id="bCm2RhhjR" class="st2" d="M114.3,210.1c-12.8,0-23.2-10.4-23.2-23.2c0-12.8,10.4-23.3,23.2-23.3
					c12.8,0,23.3,10.4,23.3,23.3C137.6,199.7,127.2,210.1,114.3,210.1z"/>
			</g>
			<g>
				<g>
					<path id="bCm2RhhjR_1_" class="st3" d="M114.3,210.1c-12.8,0-23.2-10.4-23.2-23.2c0-12.8,10.4-23.3,23.2-23.3
						c12.8,0,23.3,10.4,23.3,23.3C137.6,199.7,127.2,210.1,114.3,210.1z"/>
				</g>
			</g>
		</g>
		<g>
			<g>
				<path id="bizoqXWm1" class="st2" d="M186.4,210.1c-12.8,0-23.3-10.4-23.3-23.2c0-12.8,10.4-23.3,23.3-23.3s23.3,10.4,23.3,23.3
					C209.6,199.7,199.2,210.1,186.4,210.1z"/>
			</g>
			<g>
				<g>
					<path id="bizoqXWm1_1_" class="st3" d="M186.4,210.1c-12.8,0-23.3-10.4-23.3-23.2c0-12.8,10.4-23.3,23.3-23.3
						s23.3,10.4,23.3,23.3C209.6,199.7,199.2,210.1,186.4,210.1z"/>
				</g>
			</g>
		</g>
		<g>
			<g>
				<path id="bEWdNn8Y" class="st2" d="M150.2,140.9c-12.8,0-23.3-10.4-23.3-23.3c0-12.8,10.4-23.3,23.3-23.3
					c12.8,0,23.2,10.4,23.2,23.3C173.4,130.5,163,140.9,150.2,140.9z"/>
			</g>
			<g>
				<g>
					<path id="bEWdNn8Y_1_" class="st3" d="M150.2,140.9c-12.8,0-23.3-10.4-23.3-23.3c0-12.8,10.4-23.3,23.3-23.3
						c12.8,0,23.2,10.4,23.2,23.3C173.4,130.5,163,140.9,150.2,140.9z"/>
				</g>
			</g>
		</g>
		<g>
			<g>
				<path id="f11UjzFzLU" class="st2" d="M229.9,140.9c-12.8,0-23.3-10.4-23.3-23.3c0-12.8,10.4-23.3,23.3-23.3
					c12.8,0,23.3,10.4,23.3,23.3C253.2,130.5,242.8,140.9,229.9,140.9z"/>
			</g>
			<g>
				<g>
					<path id="f11UjzFzLU_1_" class="st3" d="M229.9,140.9c-12.8,0-23.3-10.4-23.3-23.3c0-12.8,10.4-23.3,23.3-23.3
						c12.8,0,23.3,10.4,23.3,23.3C253.2,130.5,242.8,140.9,229.9,140.9z"/>
				</g>
			</g>
		</g>
		<g>
			<g>
				<path id="bCwqJjlNc" class="st4" d="M186.4,72.1c-12.8,0-23.3-10.4-23.3-23.2c0-12.9,10.4-23.3,23.3-23.3s23.3,10.4,23.3,23.3
					C209.6,61.7,199.2,72.1,186.4,72.1z"/>
			</g>
			<g>
				<g>
					<path id="bCwqJjlNc_1_" class="st5" d="M186.4,72.1c-12.8,0-23.3-10.4-23.3-23.2c0-12.9,10.4-23.3,23.3-23.3
						s23.3,10.4,23.3,23.3C209.6,61.7,199.2,72.1,186.4,72.1z"/>
				</g>
			</g>
		</g>
		<g>
			<g>
				<path id="adjNQq5wx" class="st4" d="M175.3,67.3l-61,119.9"/>
			</g>
			<g>
				<g>
					<path id="adjNQq5wx_1_" class="st6" d="M175.3,67.3l-61,119.9"/>
				</g>
			</g>
		</g>
		<g>
			<g>
				<path id="f7zKruHQm" class="st4" d="M229.9,118.8L198,67.3"/>
			</g>
			<g>
				<g>
					<path id="f7zKruHQm_1_" class="st6" d="M229.9,118.8L198,67.3"/>
				</g>
			</g>
		</g>
		<g>
			<g>
				<path id="jBshe8SAY" class="st4" d="M186.4,186.9l-36.2-68"/>
			</g>
			<g>
				<g>
					<path id="jBshe8SAY_1_" class="st6" d="M186.4,186.9l-36.2-68"/>
				</g>
			</g>
		</g>
	</g>
</g>
</svg>
