<?xml version="1.0" encoding="UTF-8" standalone="no"?>
<!DOCTYPE svg PUBLIC "-//W3C//DTD SVG 1.1//EN" "http://www.w3.org/Graphics/SVG/1.1/DTD/svg11.dtd">
<svg version="1.1" xmlns="http://www.w3.org/2000/svg" xmlns:xlink="http://www.w3.org/1999/xlink" preserveAspectRatio="xMidYMid meet" viewBox="1.0292902839490523 -0.013890470140950129 365.96721311475414 240.06557377049182" width="361.97" height="236.07"><defs><path d="M364 226.93C364 232.52 359.46 237.05 353.88 237.05C283.51 237.05 82.53 237.05 12.16 237.05C6.56 237.05 2.03 232.52 2.03 226.93C2.03 181.74 2.03 56.3 2.03 11.12C2.03 5.52 6.56 0.99 12.16 0.99C82.53 0.99 283.51 0.99 353.88 0.99C359.46 0.99 364 5.52 364 11.12C364 56.3 364 181.74 364 226.93Z" id="d2sCit7EXO"></path><radialGradient id="gradienta1HG4rLjmN" gradientUnits="userSpaceOnUse" cx="2.03" cy="232.38" dx="335.82" dy="31.47" r="389.59"><stop style="stop-color: #8860d0;stop-opacity: 1" offset="0%"></stop><stop style="stop-color: #5ab9ea;stop-opacity: 0.87" offset="100%"></stop></radialGradient><path d="M364 226.93C364 232.52 359.46 237.05 353.88 237.05C283.51 237.05 82.53 237.05 12.16 237.05C6.56 237.05 2.03 232.52 2.03 226.93C2.03 181.74 2.03 56.3 2.03 11.12C2.03 5.52 6.56 0.99 12.16 0.99C82.53 0.99 283.51 0.99 353.88 0.99C359.46 0.99 364 5.52 364 11.12C364 56.3 364 181.74 364 226.93Z" id="bggtbggfU"></path><path d="M115.2 211.86C102.15 211.86 91.56 201.27 91.56 188.22C91.56 175.16 102.15 164.56 115.2 164.56C128.26 164.56 138.86 175.16 138.86 188.22C138.86 201.27 128.26 211.86 115.2 211.86Z" id="bCm2RhhjR"></path><path d="M188.48 211.86C175.43 211.86 164.83 201.27 164.83 188.22C164.83 175.16 175.43 164.56 188.48 164.56C201.53 164.56 212.13 175.16 212.13 188.22C212.13 201.27 201.53 211.86 188.48 211.86Z" id="bizoqXWm1"></path><path d="M151.68 141.45C138.62 141.45 128.02 130.86 128.02 117.8C128.02 104.75 138.62 94.15 151.68 94.15C164.73 94.15 175.32 104.75 175.32 117.8C175.32 130.86 164.73 141.45 151.68 141.45Z" id="bEWdNn8Y"></path><path d="M232.78 141.45C219.73 141.45 209.13 130.86 209.13 117.8C209.13 104.75 219.73 94.15 232.78 94.15C245.84 94.15 256.43 104.75 256.43 117.8C256.43 130.86 245.84 141.45 232.78 141.45Z" id="f11UjzFzLU"></path><path d="M188.48 71.49C175.43 71.49 164.83 60.9 164.83 47.85C164.83 34.78 175.43 24.19 188.48 24.19C201.53 24.19 212.13 34.78 212.13 47.85C212.13 60.9 201.53 71.49 188.48 71.49Z" id="bCwqJjlNc"></path><path d="M177.21 66.65L115.21 188.53" id="adjNQq5wx"></path><path d="M232.78 119.02L200.33 66.65" id="f7zKruHQm"></path><path d="M188.48 188.22L151.68 119.02" id="jBshe8SAY"></path></defs><g><g><use xlink:href="#d2sCit7EXO" opacity="1" fill="url(#gradienta1HG4rLjmN)"></use><g><use xlink:href="#d2sCit7EXO" opacity="1" fill-opacity="0" stroke="#000000" stroke-width="1" stroke-opacity="0"></use></g></g><g><use xlink:href="#bggtbggfU" opacity="1" fill="#000000" fill-opacity="0"></use><g><use xlink:href="#bggtbggfU" opacity="1" fill-opacity="0" stroke="#000000" stroke-width="1" stroke-opacity="0"></use></g></g><g><use xlink:href="#bCm2RhhjR" opacity="1" fill="#ffffff" fill-opacity="1"></use><g><use xlink:href="#bCm2RhhjR" opacity="1" fill-opacity="0" stroke="#000000" stroke-width="1" stroke-opacity="0"></use></g></g><g><use xlink:href="#bizoqXWm1" opacity="1" fill="#ffffff" fill-opacity="1"></use><g><use xlink:href="#bizoqXWm1" opacity="1" fill-opacity="0" stroke="#000000" stroke-width="1" stroke-opacity="0"></use></g></g><g><use xlink:href="#bEWdNn8Y" opacity="1" fill="#ffffff" fill-opacity="1"></use><g><use xlink:href="#bEWdNn8Y" opacity="1" fill-opacity="0" stroke="#000000" stroke-width="1" stroke-opacity="0"></use></g></g><g><use xlink:href="#f11UjzFzLU" opacity="1" fill="#ffffff" fill-opacity="1"></use><g><use xlink:href="#f11UjzFzLU" opacity="1" fill-opacity="0" stroke="#000000" stroke-width="1" stroke-opacity="0"></use></g></g><g><use xlink:href="#bCwqJjlNc" opacity="1" fill="#000000" fill-opacity="0"></use><g><use xlink:href="#bCwqJjlNc" opacity="1" fill-opacity="0" stroke="#ffffff" stroke-width="6" stroke-opacity="1"></use></g></g><g><use xlink:href="#adjNQq5wx" opacity="1" fill="#000000" fill-opacity="0"></use><g><use xlink:href="#adjNQq5wx" opacity="1" fill-opacity="0" stroke="#ffffff" stroke-width="5" stroke-opacity="1"></use></g></g><g><use xlink:href="#f7zKruHQm" opacity="1" fill="#000000" fill-opacity="0"></use><g><use xlink:href="#f7zKruHQm" opacity="1" fill-opacity="0" stroke="#ffffff" stroke-width="5" stroke-opacity="1"></use></g></g><g><use xlink:href="#jBshe8SAY" opacity="1" fill="#000000" fill-opacity="0"></use><g><use xlink:href="#jBshe8SAY" opacity="1" fill-opacity="0" stroke="#ffffff" stroke-width="5" stroke-opacity="1"></use></g></g></g></svg>