<?xml version="1.0" encoding="UTF-8" standalone="no"?>
<!DOCTYPE svg PUBLIC "-//W3C//DTD SVG 1.1//EN" "http://www.w3.org/Graphics/SVG/1.1/DTD/svg11.dtd">
<svg version="1.1" xmlns="http://www.w3.org/2000/svg" xmlns:xlink="http://www.w3.org/1999/xlink" preserveAspectRatio="xMidYMid meet" viewBox="162.0035548779851 181.97745531130994 372.00000000000006 244" width="368" height="240"><defs><path d="M531 193.28C531 239.22 531 366.75 531 412.69C531 418.37 526.39 422.98 520.71 422.98C449.17 422.98 244.84 422.98 173.3 422.98C167.61 422.98 163 418.37 163 412.69C163 366.75 163 239.22 163 193.28C163 187.59 167.61 182.98 173.3 182.98C244.84 182.98 449.17 182.98 520.71 182.98C526.39 182.98 531 187.59 531 193.28Z" id="b31vWwlPKO"></path><radialGradient id="gradientdQsXLdbP" gradientUnits="userSpaceOnUse" cx="163" cy="418.23" dx="502.35" dy="213.97" r="396.08"><stop style="stop-color: #8860d0;stop-opacity: 1" offset="0%"></stop><stop style="stop-color: #5ab9ea;stop-opacity: 0.87" offset="100%"></stop></radialGradient><path d="M302.11 373.33C302.11 386.6 291.33 397.37 278.06 397.37C264.79 397.37 254.02 386.6 254.02 373.33C254.02 360.06 264.79 349.28 278.06 349.28C291.33 349.28 302.11 360.06 302.11 373.33Z" id="c1nsounvnr"></path><path d="M376.6 373.33C376.6 386.6 365.83 397.37 352.56 397.37C339.29 397.37 328.51 386.6 328.51 373.33C328.51 360.06 339.29 349.28 352.56 349.28C365.83 349.28 376.6 360.06 376.6 373.33Z" id="h1ldtdRkbX"></path><path d="M339.18 301.74C339.18 315.02 328.41 325.79 315.14 325.79C301.87 325.79 291.09 315.02 291.09 301.74C291.09 288.47 301.87 277.7 315.14 277.7C328.41 277.7 339.18 288.47 339.18 301.74Z" id="f2qbXULHhx"></path><path d="M421.64 301.74C421.64 315.02 410.87 325.79 397.6 325.79C384.33 325.79 373.55 315.02 373.55 301.74C373.55 288.47 384.33 277.7 397.6 277.7C410.87 277.7 421.64 288.47 421.64 301.74Z" id="d1q2Ye514P"></path><path d="M376.6 230.62C376.6 243.89 365.83 254.66 352.56 254.66C339.29 254.66 328.51 243.89 328.51 230.62C328.51 217.34 339.29 206.57 352.56 206.57C365.83 206.57 376.6 217.34 376.6 230.62Z" id="cc2gwhMth"></path><clipPath id="clipdF0AyMplo"><use xlink:href="#cc2gwhMth" opacity="1"></use></clipPath><path d="M343.96 248.5L278.06 375.74" id="an8sPH3Pr"></path><path d="M397.6 302.98L364.61 249.74" id="bknB0nHaI"></path><path d="M352.56 373.33L315.14 302.98" id="b1eE3HHlcS"></path></defs><g><g><use xlink:href="#b31vWwlPKO" opacity="1" fill="url(#gradientdQsXLdbP)"></use><g><use xlink:href="#b31vWwlPKO" opacity="1" fill-opacity="0" stroke="#000000" stroke-width="1" stroke-opacity="0"></use></g></g><g><use xlink:href="#c1nsounvnr" opacity="1" fill="#ffffff" fill-opacity="1"></use></g><g><use xlink:href="#h1ldtdRkbX" opacity="1" fill="#ffffff" fill-opacity="1"></use></g><g><use xlink:href="#f2qbXULHhx" opacity="1" fill="#ffffff" fill-opacity="1"></use></g><g><use xlink:href="#d1q2Ye514P" opacity="1" fill="#ffffff" fill-opacity="1"></use></g><g><g clip-path="url(#clipdF0AyMplo)"><use xlink:href="#cc2gwhMth" opacity="1" fill-opacity="0" stroke="#ffffff" stroke-width="10" stroke-opacity="1"></use></g><g><filter id="shadow8137522" x="319.51" y="197.57" width="67.09" height="67.09" filterUnits="userSpaceOnUse" primitiveUnits="userSpaceOnUse"><feFlood></feFlood><feComposite in2="SourceAlpha" operator="out"></feComposite><feGaussianBlur stdDeviation="1"></feGaussianBlur><feOffset dx="1" dy="1" result="afterOffset"></feOffset><feFlood flood-color="#ffffff" flood-opacity="0.8"></feFlood><feComposite in2="afterOffset" operator="in"></feComposite><feMorphology operator="dilate" radius="1"></feMorphology><feComposite in2="SourceAlpha" operator="in"></feComposite></filter><path d="M376.6 230.62C376.6 243.89 365.83 254.66 352.56 254.66C339.29 254.66 328.51 243.89 328.51 230.62C328.51 217.34 339.29 206.57 352.56 206.57C365.83 206.57 376.6 217.34 376.6 230.62Z" id="j1vt7MLk0j" fill="white" fill-opacity="1" filter="url(#shadow8137522)"></path></g></g><g><g><use xlink:href="#an8sPH3Pr" opacity="1" fill-opacity="0" stroke="#ffffff" stroke-width="5" stroke-opacity="1"></use></g></g><g><g><use xlink:href="#bknB0nHaI" opacity="1" fill-opacity="0" stroke="#ffffff" stroke-width="5" stroke-opacity="1"></use></g></g><g><g><filter id="shadow7752918" x="306.14" y="293.98" width="56.42" height="89.35" filterUnits="userSpaceOnUse" primitiveUnits="userSpaceOnUse"><feFlood></feFlood><feComposite in2="SourceAlpha" operator="in"></feComposite><feGaussianBlur stdDeviation="1"></feGaussianBlur><feOffset dx="1" dy="1" result="afterOffset"></feOffset><feFlood flood-color="#000000" flood-opacity="0.26"></feFlood><feComposite in2="afterOffset" operator="in"></feComposite><feMorphology operator="dilate" radius="1"></feMorphology><feComposite in2="SourceAlpha" operator="out"></feComposite></filter><path d="M352.56 373.33L315.14 302.98" id="gt2NaTDi6" fill="none" stroke="white" filter="url(#shadow7752918)"></path></g><g><use xlink:href="#b1eE3HHlcS" opacity="1" fill-opacity="0" stroke="#ffffff" stroke-width="5" stroke-opacity="1"></use></g></g></g></svg>